<svg viewBox="0 0 400 300" fill="none" xmlns="http://www.w3.org/2000/svg"><path d="M174.11 172.48c-.14-4.26 0-4.71.09-7.16.4-14.59-35.67-15.87-44.7-17.86-15.5-3.4-34.1-7.6-33.5-19.13.1-2-4.75-.76-4.75-.76l-1.35 12.15s-1.7 10.62 27.58 17.21c13.63 3.07 50.12 9.35 44.47 22l12.16-6.45ZM122.09 210.67s-1.61 12.94 32.48 16.33c7.13.71 51.4 5.56 51.4 5.56s.42-9 .41-10c-9.59-1.32-45.33-6.31-52.33-7.35s-25.85-5.42-25.13-16.65c.15-2.3-5.34-2-5.34-2l-1.49 14.11Z" fill="#0C296E"/><path d="M167.16 142.55h-16.13v94.25h16.13v-94.25Z" fill="#fff" stroke="#0C296E" stroke-width=".8" stroke-linecap="round" stroke-linejoin="round"/><path d="M166.85 143.08h-6.51v94.25h6.51v-94.25Z" fill="#E3E4E5"/><path d="M138.22 86.73h58.51a30 30 0 0 1 30 30v36.39H108.25V116.7a29.998 29.998 0 0 1 29.97-29.97Z" fill="#fff" stroke="#0C296E" stroke-width=".8" stroke-linecap="round" stroke-linejoin="round"/><path d="M200.29 86.68a26.4 26.4 0 0 1 26.4 26.4v40h-52.8v-40a26.396 26.396 0 0 1 7.733-18.668 26.39 26.39 0 0 1 18.667-7.732Z" fill="#0C296E"/><path d="M223.89 152.89h-50.16l11 31.75c4.54 13.4 19.45 24.27 33.3 24.27 13.85 0 21.4-10.87 16.86-24.27l-11-31.75Z" fill="#E0E2E4" stroke="#0C296E" stroke-width=".8" stroke-linecap="round" stroke-linejoin="round"/><path d="M138.67 104.82c-16.29.07-35.87 5.12-42.86 10.12a13.165 13.165 0 0 0-5.56 9.59l-.37 15.95c.63-11.51 22.72-19.4 48.78-21.2-.01-6.79-.08-8.46.01-14.46ZM174.19 164.9c0 5.42-3.06 9.83-13.82 11.53-17.91 2.83-25.06 4.13-31.71 9a15.24 15.24 0 0 0-6.23 11.09l-.33 15c.62-12.33 6.56-18.39 38.24-22.2 9.27-1.12 14.27-5.73 14.27-9.21-.2-6.95-.15-8.4-.42-15.21Z" fill="#3370FF"/><path d="M210.382 130.759c8.728-4.93 11.806-16.002 6.876-24.73-4.93-8.727-16.001-11.806-24.729-6.876-8.728 4.93-11.807 16.001-6.877 24.729 4.93 8.728 16.002 11.807 24.73 6.877Z" fill="#fff" stroke="#0C296E" stroke-width=".8" stroke-miterlimit="10"/><path d="M201 115.73c-8.21-.93-15-5.67-17.3-8.73a30.457 30.457 0 0 1 2.63-4.19c3.15 4.84 11.74 9.12 17.17 10.36l-2.5 2.56Z" fill="#00D6B9"/><path d="M204.546 119.814a5.75 5.75 0 1 0-5.657-10.014 5.75 5.75 0 0 0 5.657 10.014Z" fill="#fff" stroke="#0C296E" stroke-width=".8" stroke-miterlimit="10"/><path d="M203.162 118.277a3.654 3.654 0 0 0 1.39-4.977 3.654 3.654 0 1 0-1.39 4.977Z" fill="#00D6B9"/><path d="M191.092 121.884a1.49 1.49 0 1 0-1.465-2.595 1.49 1.49 0 0 0 1.465 2.595Z" fill="#0C296E"/><path d="M202.67 120.47s.36 7.31-4.24 12.38" stroke="#0C296E" stroke-width=".8" stroke-miterlimit="10"/><path d="M295.44 126.45 246.12 108a22.998 22.998 0 0 0-28.05 14.12l-9.67 26.1 62.69 29.13 24.35-50.9Z" fill="#fff" stroke="#0C296E" stroke-width=".8" stroke-miterlimit="10"/><path d="M283.38 135.52 245.15 119c-9.95-4-20.34-8.76-24.29-1.21a30.54 30.54 0 0 1 2.5-3.59c2.3-2.26 7.13-7.65 23.85.11L285.58 131M248.67 145.68l-5.82 5.37 26.31 12.52 3.42-7.05-23.91-10.84Z" fill="#00D6B9"/><path d="m295.539 126.551-7.725-3.64-24.305 51.581 7.725 3.64 24.305-51.581Z" fill="#00D6B9" stroke="#0C296E" stroke-width=".8" stroke-miterlimit="10"/><path d="M271.31 177v74.1h56.37v-77c0-44.92-32.24-48-32.24-48L271.31 177Z" fill="#0C296E"/><path d="M281.72 155.38s16 5.18 14.06 21.17l7.56 6.71v58.56" stroke="#fff" stroke-width=".8" stroke-linecap="round" stroke-linejoin="round"/><path d="M89.456 191.925c7.537-7.538 7.537-19.758 0-27.295-7.537-7.537-19.757-7.537-27.294 0-7.537 7.537-7.537 19.757 0 27.295 7.537 7.537 19.757 7.537 27.294 0Z" fill="#00D6B9"/><path d="M78.42 163.41A15.108 15.108 0 0 1 90.3 174M94.92 196.59a26.313 26.313 0 0 1-37.21-37.21" stroke="#0C296E" stroke-width=".8" stroke-linecap="round" stroke-linejoin="round"/><path d="M80.868 188.969a3.48 3.48 0 1 0-4.923-4.922 3.48 3.48 0 0 0 4.923 4.922Z" fill="#0C296E"/><path d="M63.616 160.133a4.71 4.71 0 1 0-6.66-6.661 4.71 4.71 0 0 0 6.66 6.661Z" fill="#FFC60A"/><path d="m232.7 89.17 14.23-11.84M237.49 95.69l11.73-3.23M226.77 83.75l6.37-11.66" stroke="#00D6B9" stroke-width="2" stroke-miterlimit="10"/><path d="m334.87 119.69 15.99-4.79-2.93 17.51-13.06-12.72Z" stroke="#0C296E" stroke-width=".8" stroke-linecap="round" stroke-linejoin="round"/><path d="M277.07 76.55h51.82c7.864 0 14.24-6.376 14.24-14.24 0-7.865-6.376-14.24-14.24-14.24h-51.82c-7.865 0-14.24 6.375-14.24 14.24 0 7.864 6.375 14.24 14.24 14.24Z" fill="#FFC60A"/><path d="M277.42 76.24v11.01l12.65-11.05-12.65.04Z" fill="#FFC60A"/><path d="M317.6 66.22a3.91 3.91 0 1 0 0-7.82 3.91 3.91 0 0 0 0 7.82ZM302.97 66.22a3.91 3.91 0 1 0 0-7.82 3.91 3.91 0 0 0 0 7.82ZM288.35 66.22a3.91 3.91 0 1 0 0-7.82 3.91 3.91 0 0 0 0 7.82Z" fill="#fff"/><path d="M72.46 93.24a7.22 7.22 0 1 0 0-14.44 7.22 7.22 0 0 0 0 14.44Z" fill="#FFC60A"/><path d="m251.92 142.21-19.64 17.89a25.278 25.278 0 0 1-26.47-.6l-26.14-14.84 15.49-28.14s16.45 8.77 20.76 11.75c15.86 5.49 22.45 30 6 35.17" fill="#fff"/><path d="m251.92 142.21-19.64 17.89a25.278 25.278 0 0 1-26.47-.6l-26.14-14.84 15.49-28.14s16.45 8.77 20.76 11.75c15.86 5.49 22.45 30 6 35.17" stroke="#0C296E" stroke-width=".8" stroke-miterlimit="10"/><path d="m195.16 116.25-5.59-2.58c-7.25-3.35-17.2-2.31-25.08-1.06-3.26.52-4.69 4.59-2.37 5.87-3.77.45-4.13 5.85-.89 6.09-3.17.45-2.69 5.15.33 5.32-1.24 0-1.66 2.13-.91 3.51 1.45 2.67 5.13 2.17 9.79 6.12 1.19 1 2.67 4.84 8.55 4.84" fill="#fff"/><path d="m195.16 116.25-5.59-2.58c-7.25-3.35-17.2-2.31-25.08-1.06-3.26.52-4.69 4.59-2.37 5.87-3.77.45-4.13 5.85-.89 6.09-3.17.45-2.69 5.15.33 5.32-1.24 0-1.66 2.13-.91 3.51 1.45 2.67 5.13 2.17 9.79 6.12 1.19 1 2.67 4.84 8.55 4.84" stroke="#0C296E" stroke-width=".8" stroke-linecap="round" stroke-linejoin="round"/><path d="m162.12 118.48 15.36.12M161 124.57l13.52.9M161.33 129.89l11.41 2.12" stroke="#0C296E" stroke-width=".8" stroke-miterlimit="10"/><path d="m204.738 120.241-8.868-5.12-17.7 30.657 8.868 5.12 17.7-30.657ZM217.54 163.14c13.95-12.85 2.84-31.65-1.94-34.82 11.09 3.67 20.51 20.54 12.55 30.77-1.15 1.45-5.24 5.16-10.61 4.05Z" fill="#00D6B9"/><path d="m195.88 115.12 8.87 5.12-.75 1.29" stroke="#0C296E" stroke-width=".8" stroke-linecap="round" stroke-linejoin="round"/><path d="M364.64 251.18c-6.46-8.57-18.07-14.3-31.32-14.3a42.524 42.524 0 0 0-20.9 5.32c-8.44-10.12-22.68-16.77-38.83-16.77a54.24 54.24 0 0 0-27.11 7c-13.29-13.3-34.3-21.89-57.94-21.89-22.23 0-42.14 7.6-55.49 19.57-10.52-6.82-24.21-11-39.19-11-27.08 0-50 13.47-57.44 32l328.22.07Z" fill="#F0F1F2"/><path d="M88.82 231.57a23.063 23.063 0 0 1 32.55 8.68" stroke="#0C296E" stroke-width=".8" stroke-linecap="round" stroke-linejoin="round"/><path d="M118.79 235.9a17.088 17.088 0 0 1 10.221-1.469 17.089 17.089 0 0 1 9.199 4.689M228.17 239.65a27.217 27.217 0 0 1 37.4.38" stroke="#0C296E" stroke-width=".8" stroke-linecap="round" stroke-linejoin="round"/><path d="M206 53.54h-10.56a1.812 1.812 0 0 1-1.28-3.09c.34-.339.8-.53 1.28-.53h1.3a3.62 3.62 0 0 0 0-7.23h-22.3a3.62 3.62 0 0 0 0 7.23h8.93a1.811 1.811 0 0 1 .693 3.483c-.22.09-.455.137-.693.137h-2.57a3.62 3.62 0 0 0 0 7.24H206a3.621 3.621 0 0 0 2.56-6.18 3.62 3.62 0 0 0-2.56-1.06Z" fill="#F0F1F2"/><path d="M154.07 52.59h-4.92v66.87h4.92V52.59Z" fill="#E3E4E5"/><path d="m149.15 52.59-29.81 16.32 29.81 13.01V52.59Z" fill="#00D6B9"/></svg>