<svg width="512" height="512" viewBox="0 0 512 512" fill="none" xmlns="http://www.w3.org/2000/svg" xmlns:xlink="http://www.w3.org/1999/xlink" class=""><rect id="r4" width="512" height="512" x="0" y="0" rx="128" fill="url(#r5)" stroke="#FFFFFF" stroke-width="0" stroke-opacity="100%" paint-order="stroke"></rect><clipPath id="clip"><use xlink:href="#r4"></use></clipPath><defs><linearGradient id="r5" gradientUnits="userSpaceOnUse" gradientTransform="rotate(45)" style="transform-origin: center center;"><stop stop-color="#00AAFF"></stop><stop offset="1" stop-color="#0088FF"></stop></linearGradient><radialGradient id="r6" cx="0" cy="0" r="1" gradientUnits="userSpaceOnUse" gradientTransform="translate(256) rotate(90) scale(512)"><stop stop-color="white"></stop><stop offset="1" stop-color="white" stop-opacity="0"></stop></radialGradient></defs><svg viewBox="0 0 16 16" fill="none" xmlns="http://www.w3.org/2000/svg" width="352" height="352" x="80" y="80" alignment-baseline="middle" style="color: rgb(255, 255, 255);"><path d="m10.673 3.471 1.341-.46c.865-.296 1.82.124 2.135.939.315.814-.131 1.716-.995 2.012l-2.236.767-1.136 2.927c-.214.431-.6.765-1.074.928l-1.942.666.575-3.293-3.8 1.304L1.75 4.624l.907-.311a1.99 1.99 0 0 1 1.96.383l.69.617 2.683-.92m2.683-.922-.591-.702c-.764-.908-2.059-1.253-3.213-.857l-.75.258L7.99 4.392m2.683-.92-2.683.92M1.75 14.25h12.5" stroke="currentColor" stroke-width="1.5" stroke-linecap="round" stroke-linejoin="round"></path></svg></svg>