<svg viewBox="0 0 400 300" fill="none" xmlns="http://www.w3.org/2000/svg"><path opacity=".51" fill-rule="evenodd" clip-rule="evenodd" d="M122.289 236.879c-10.59-4.32-19.62-9.47-26.65-15.24 21.58-17.7 61.94-29.6 108.16-29.6 46.23 0 86.58 11.9 108.16 29.59-8.68 7.12-20.4 13.31-34.33 18.16-4.19 1.46-8.58 2.8-13.15 3.99-5.79 1.54-11.87 2.86-18.2 3.94-13.25 2.27-27.56 3.51-42.48 3.51-17.62 0-34.4-1.73-49.6-4.85-5.12-1.05-10.06-2.26-14.8-3.62-4.55-1.3-8.91-2.73-13.05-4.29-1.38-.52-2.73-1.04-4.06-1.59Z" fill="#DCDDDD"/><path d="M195.961 84.034c1.28-.01 2.56-.02 3.84-.02 83.96 0 152.03 32.25 152.03 72.04 0 10.3-4.56 20.1-12.79 28.97M55.69 179.06c-1.7-2.38-3.14-4.82-4.3-7.31-2.37-5.06-3.62-10.31-3.62-15.7 0-36.68 57.86-66.96 132.69-71.46" stroke="#31333A" stroke-width="2.126"/><path d="M315.302 128.121c12.36 7.6 21.59 16.4 26.77 25.97M135.833 108.684c12.54-2.76 26.01-4.74 40.13-5.79M64.184 141.457c9.47-8.83 22.67-16.61 38.62-22.88M82.29 221.476c-13.9-6.21-23.52-15.27-27.2-26.96M308.091 230.476c13.89-6.21 23.52-15.27 27.2-26.96" stroke="#31333A" stroke-width="2.126"/><path d="M199.801 122.597c-83.96 0-152.03 32.25-152.03 72.04 0 12.5 6.72 24.26 18.55 34.51 9.83 8.52 23.19 16 39.16 21.99 25.91 9.73 58.69 15.54 94.32 15.54 83.97 0 152.03-32.25 152.03-72.04 0-39.79-68.06-72.04-152.03-72.04Z" stroke="#31333A" stroke-width="2.126"/><path fill-rule="evenodd" clip-rule="evenodd" d="m265.796 43.12 17.201 6.865c4.653 1.857 9.938-.405 11.795-5.059a9.083 9.083 0 0 0-5.068-11.798l-17.2-6.865a9.084 9.084 0 0 0-11.799 5.068c-1.857 4.653.418 9.932 5.071 11.79Z" fill="#5578EC"/><path d="m298.75 37.874-34.066-13.596-5.941 14.885 34.067 13.595 5.94-14.884Z" stroke="#3351E5" stroke-width="2.126"/><path fill-rule="evenodd" clip-rule="evenodd" d="m179.551 162.151 79.846 31.866a15.793 15.793 0 0 0 12.078-.154 15.748 15.748 0 0 0 8.423-8.644l42.708-107.012a15.754 15.754 0 0 0-.158-12.069 15.791 15.791 0 0 0-8.653-8.427l-79.846-31.866c-8.09-3.228-17.264.712-20.492 8.802l-42.708 107.012c-3.228 8.09.712 17.264 8.802 20.492Z" fill="#5578EC"/><path d="M329.043 64.94 219.896 21.38l-53.611 134.332 109.148 43.56 53.61-134.332Z" stroke="#3351E5" stroke-width="2.126"/><path fill-rule="evenodd" clip-rule="evenodd" d="m181.63 152.376 83.005 33.126a6.987 6.987 0 0 0 9.07-3.895l42.577-106.688a6.987 6.987 0 0 0-3.895-9.07l-83.004-33.126a6.986 6.986 0 0 0-9.07 3.895l-42.578 106.688a6.987 6.987 0 0 0 3.895 9.07Z" fill="#5578EC"/><path fill-rule="evenodd" clip-rule="evenodd" d="M285.024 147.948c-9.19 19.17-31.38 28.52-51.56 21.59 3.97-.01 9.68-1.12 11.58-7.09.779-2.439 1.15-5.574 1.518-8.68 1.058-8.942 2.089-17.652 12.732-8.88 13.36 11.02 24.3 4.06 25.73 3.06Z" fill="#DCDDDD"/><path fill-rule="evenodd" clip-rule="evenodd" d="M284.011 145.59c-9.19 19.17-31.38 28.52-51.56 21.59 3.97-.01 9.68-1.12 11.58-7.09.778-2.439 1.15-5.574 1.517-8.681 1.059-8.942 2.09-17.651 12.733-8.879 13.36 11.02 24.29 4.06 25.73 3.06Z" fill="#DCDDDD"/><path fill-rule="evenodd" clip-rule="evenodd" d="M286.184 145.324c-.36.89-.75 1.76-1.16 2.62-.261.181-.563.794-.975 1.63-1.859 3.773-5.955 12.088-18.635 5.76-11.232-5.605-12.39-2.894-14.543 2.144-.769 1.803-1.666 3.903-3.197 6.026-3.41 4.73-10.24 6.03-14.21 6.03-.66-.22-1.32-.46-1.97-.72l-49.89-19.91a4.959 4.959 0 0 1-2.76-6.43l42.9-107.48a4.944 4.944 0 0 1 6.42-2.76l84.39 33.68a4.948 4.948 0 0 1 2.76 6.42l-29.13 72.99Z" fill="#fff"/><path fill-rule="evenodd" clip-rule="evenodd" d="m245.966 44.812 46.281 18.47a5.574 5.574 0 0 0 7.247-3.105l2.595-6.501a5.625 5.625 0 0 0-.05-4.273 5.62 5.62 0 0 0-3.065-2.978l-46.28-18.47a5.62 5.62 0 0 0-4.273.05 5.621 5.621 0 0 0-2.978 3.064l-2.595 6.502a5.575 5.575 0 0 0 3.118 7.241Z" fill="#5578EC"/><path d="m304.75 49.874-56.646-22.606-5.94 14.884 56.646 22.606 5.94-14.884Z" stroke="#3351E5" stroke-width="2.126"/><path fill-rule="evenodd" clip-rule="evenodd" d="M231.106 81.83c5.76-12.24 20.62-17.36 33.18-11.44 12.55 5.92 18.06 20.63 12.3 32.859-.45.96-.95 1.86-1.5 2.72-5.12 8-14.49 12.15-23.87 10.99-2.63-.33-5.27-1.07-7.81-2.27-.58-.28-1.2-.47-1.84-.51-1.49-.1-2.98-.07-4.44.1-2.02.24-4.02-.63-5.15-2.32-3.7-5.58-5.01-12.58-3.32-19.29.1-.4.16-.81.17-1.23.08-3.24.81-6.51 2.28-9.61Z" fill="#5578EC"/><path d="M264.286 70.39c-12.56-5.92-27.42-.8-33.18 11.44-1.47 3.1-2.2 6.37-2.28 9.61-.01.42-.07.83-.17 1.23-1.69 6.71-.38 13.709 3.32 19.289 1.13 1.69 3.13 2.56 5.15 2.32 1.46-.17 2.95-.2 4.44-.1.64.04 1.26.23 1.84.51 2.54 1.2 5.18 1.94 7.81 2.27 9.38 1.16 18.75-2.99 23.87-10.99.55-.86 1.05-1.76 1.5-2.72 5.76-12.23.25-26.94-12.3-32.86Z" stroke="#3351E5" stroke-width="2.126"/><path fill-rule="evenodd" clip-rule="evenodd" d="M225.963 215.746c12.72 0 24.34 4.91 33.08 12.94 8.58 7.87 14.37 18.75 15.65 30.92-7.06 1.87-14.46 3.47-22.16 4.79-16.14 2.77-33.57 4.28-51.73 4.28-21.46 0-41.89-2.11-60.4-5.91a238.63 238.63 0 0 1-18.02-4.41c1.32-10.01 5.68-19.09 12.15-26.28.58-.66 1.19-1.31 1.82-1.94 8.89-8.88 21.13-14.39 34.61-14.39h55Z" fill="#fff"/><path d="M259.043 228.686c-8.74-8.03-20.36-12.94-33.08-12.94h-55c-13.48 0-25.72 5.51-34.61 14.39-.63.63-1.24 1.28-1.82 1.94-6.47 7.19-10.83 16.27-12.15 26.28a238.63 238.63 0 0 0 18.02 4.41c18.51 3.8 38.94 5.91 60.4 5.91 18.16 0 35.59-1.51 51.73-4.28 7.7-1.32 15.1-2.92 22.16-4.79-1.28-12.17-7.07-23.05-15.65-30.92Z" stroke="#31333A" stroke-width="2.126"/><path fill-rule="evenodd" clip-rule="evenodd" d="M65.278 187.665c.64-.86 1.47-1.48 2.36-1.84.17-.4.37-.79.64-1.16 1.63-2.19 4.49-2.86 6.36-1.48l8.47 6.25c.56-.18 1.14-.24 1.73-.17l23.91 2.85c.07.01.14.03.21.04l.77-.15c6.22-1.19 12.27 2.92 13.46 9.13l1.13 5.89c1.19 6.21-2.91 12.27-9.13 13.46l-2.18.42c-6.22 1.19-12.27-2.92-13.46-9.13l-.79-4.09-15.89-1.9c-.41-.05-.79-.16-1.16-.32-.57-.1-1.11-.32-1.58-.67l-14.39-10.61c-1.87-1.39-2.08-4.32-.46-6.52Z" fill="#fff"/><path d="M67.638 185.825c-.89.36-1.72.98-2.36 1.84-1.62 2.2-1.41 5.13.46 6.52l14.39 10.61c.47.35 1.01.57 1.58.67.37.16.75.27 1.16.32l15.89 1.9.79 4.09c1.19 6.21 7.24 10.32 13.46 9.13l2.18-.42c6.22-1.19 10.32-7.25 9.13-13.46l-1.13-5.89c-1.19-6.21-7.24-10.32-13.46-9.13l-.77.15c-.07-.01-.14-.03-.21-.04l-23.91-2.85c-.59-.07-1.17-.01-1.73.17l-8.47-6.25c-1.87-1.38-4.73-.71-6.36 1.48-.27.37-.47.76-.64 1.16Z" stroke="#31333A" stroke-width="2.126"/><path fill-rule="evenodd" clip-rule="evenodd" d="M106.486 253.14c-1.68-.63-3.32-1.27-4.94-1.94l-4.67-24.37-1.31-6.83c-.56-2.92 1.37-5.77 4.3-6.33l.2-.04 24.47-4.69.05-.01c2.92-.56 5.77 1.37 6.33 4.29l1.31 6.84 2.31 12.02 5.83 30.42c.02.09.03.18.04.27a238.63 238.63 0 0 1-18.02-4.41c-5.54-1.58-10.85-3.32-15.9-5.22Z" fill="#fff"/><path d="M101.546 251.2c1.62.67 3.26 1.31 4.94 1.94 5.05 1.9 10.36 3.64 15.9 5.22a238.63 238.63 0 0 0 18.02 4.41c-.01-.09-.02-.18-.04-.27l-5.83-30.42-2.31-12.02-1.31-6.84c-.56-2.92-3.41-4.85-6.33-4.29l-.05.01-24.47 4.69-.2.04c-2.93.56-4.86 3.41-4.3 6.33l1.31 6.83 4.67 24.37Z" stroke="#31333A" stroke-width="2.126"/><path fill-rule="evenodd" clip-rule="evenodd" d="m96.87 226.829 35.357-6.777-1.31-6.836a5.41 5.41 0 0 0-6.332-4.295l-24.73 4.741a5.407 5.407 0 0 0-4.294 6.332l1.31 6.835Z" fill="#DCDDDD"/><path d="m131.142 208.747-35.356 6.777 1.93 10.063 35.355-6.778-1.929-10.062Z" stroke="#31333A" stroke-width="2.126"/><path fill-rule="evenodd" clip-rule="evenodd" d="M102.462 217.746a2.5 2.5 0 1 0 .002 5.001 2.5 2.5 0 0 0-.002-5.001Z" fill="#DCDDDD"/><path fill-rule="evenodd" clip-rule="evenodd" d="m327.188 194.185-14.39 10.61c-.48.35-1.01.57-1.58.67-.37.16-.75.27-1.16.32l-15.89 1.9-.79 4.09c-1.19 6.21-7.24 10.32-13.46 9.13l-2.19-.42c-6.21-1.19-10.32-7.25-9.12-13.46l1.12-5.89c1.2-6.21 7.25-10.32 13.46-9.13l.78.15c.07-.01.14-.03.21-.04l23.91-2.85c.59-.07 1.17-.01 1.73.17l8.47-6.25c1.87-1.38 4.73-.71 6.36 1.48.27.37.47.76.64 1.16.88.36 1.72.98 2.36 1.84 1.62 2.2 1.41 5.13-.46 6.52Z" fill="#fff"/><path d="m312.798 204.795 14.39-10.61c1.87-1.39 2.08-4.32.46-6.52a5.606 5.606 0 0 0-2.36-1.84c-.17-.4-.37-.79-.64-1.16-1.63-2.19-4.49-2.86-6.36-1.48l-8.47 6.25c-.56-.18-1.14-.24-1.73-.17l-23.91 2.85c-.07.01-.14.03-.21.04l-.78-.15c-6.21-1.19-12.26 2.92-13.46 9.13l-1.12 5.89c-1.2 6.21 2.91 12.27 9.12 13.46l2.19.42c6.22 1.19 12.27-2.92 13.46-9.13l.79-4.09 15.89-1.9c.41-.05.79-.16 1.16-.32.57-.1 1.1-.32 1.58-.67Z" stroke="#31333A" stroke-width="2.126"/><path fill-rule="evenodd" clip-rule="evenodd" d="M252.534 264.4c-.1-.61-.09-1.25.03-1.9l6.48-33.81 1.66-8.63 1.31-6.84c.56-2.92 3.41-4.85 6.33-4.29l.05.01 24.47 4.69.2.04c2.93.56 4.86 3.41 4.3 6.33l-1.31 6.83-5.35 27.91c-5.1 1.78-10.45 3.41-16.01 4.87-7.06 1.87-14.46 3.47-22.16 4.79Z" fill="#fff"/><path d="M252.564 262.5c-.12.65-.13 1.29-.03 1.9 7.7-1.32 15.1-2.92 22.16-4.79 5.56-1.46 10.91-3.09 16.01-4.87l5.35-27.91 1.31-6.83c.56-2.92-1.37-5.77-4.3-6.33l-.2-.04-24.47-4.69-.05-.01c-2.92-.56-5.77 1.37-6.33 4.29l-1.31 6.84-1.66 8.63-6.48 33.81Z" stroke="#31333A" stroke-width="2.126"/><path fill-rule="evenodd" clip-rule="evenodd" d="m293.069 213.664-24.729-4.741a5.407 5.407 0 0 0-6.332 4.295l-1.311 6.835 35.357 6.778 1.31-6.835a5.407 5.407 0 0 0-4.295-6.332Z" fill="#DCDDDD"/><path d="m259.854 218.809 35.356 6.778 1.929-10.062-35.356-6.778-1.929 10.062Z" stroke="#31333A" stroke-width="2.126"/><path fill-rule="evenodd" clip-rule="evenodd" d="M290.463 217.746a2.5 2.5 0 0 0 0 5 2.5 2.5 0 0 0 0-5Z" fill="#DCDDDD"/><path fill-rule="evenodd" clip-rule="evenodd" d="M142.462 169.746c-4.69 0-8.5 3.81-8.5 8.5 0 4.69 3.81 8.5 8.5 8.5 4.69 0 8.5-3.81 8.5-8.5 0-4.69-3.81-8.5-8.5-8.5Z" fill="#fff"/><path d="M142.462 169.746c-4.69 0-8.5 3.81-8.5 8.5 0 4.69 3.81 8.5 8.5 8.5 4.69 0 8.5-3.81 8.5-8.5 0-4.69-3.81-8.5-8.5-8.5Z" stroke="#31333A" stroke-width="2.126"/><path fill-rule="evenodd" clip-rule="evenodd" d="M246.462 169.746c-4.69 0-8.5 3.81-8.5 8.5 0 4.69 3.81 8.5 8.5 8.5 4.69 0 8.5-3.81 8.5-8.5 0-4.69-3.81-8.5-8.5-8.5Z" fill="#fff"/><path d="M246.462 169.746c-4.69 0-8.5 3.81-8.5 8.5 0 4.69 3.81 8.5 8.5 8.5 4.69 0 8.5-3.81 8.5-8.5 0-4.69-3.81-8.5-8.5-8.5Z" stroke="#31333A" stroke-width="2.126"/><path fill-rule="evenodd" clip-rule="evenodd" d="M195.962 225.746c3.18 0 6.23-1.26 8.49-3.51a12.03 12.03 0 0 0 3.51-8.49v-5c0-3.18-1.26-6.23-3.51-8.49a12.03 12.03 0 0 0-8.49-3.51c-3.18 0-6.23 1.26-8.49 3.51a12.03 12.03 0 0 0-3.51 8.49v5c0 3.18 1.26 6.23 3.51 8.49a12.03 12.03 0 0 0 8.49 3.51Z" fill="#fff"/><path d="M209.025 197.81h-24v26.874h24V197.81Z" stroke="#31333A" stroke-width="2.126"/><path fill-rule="evenodd" clip-rule="evenodd" d="M61.962 136.746c-2.76 0-5 2.24-5 5s2.24 5 5 5 5-2.24 5-5-2.24-5-5-5Z" fill="#31333A"/><path fill-rule="evenodd" clip-rule="evenodd" d="M147.462 83.246c-2.76 0-5 2.24-5 5s2.24 5 5 5 5-2.24 5-5-2.24-5-5-5Z" fill="#fff"/><path d="M147.462 83.246c-2.76 0-5 2.24-5 5s2.24 5 5 5 5-2.24 5-5-2.24-5-5-5Z" stroke="#31333A" stroke-width="2.126"/><path fill-rule="evenodd" clip-rule="evenodd" d="m345.304 130.746 6.93 12h-13.86l6.93-12Z" fill="#5578EC"/><path d="m352.234 142.746-6.93-12-6.93 12h13.86Z" stroke="#3351E5" stroke-width="2.126"/><path d="M145.968 254.546c-.97 2.36-1.64 4.77-1.99 7.2M247.978 257.546c.97 2.36 1.63 4.77 1.99 7.2" stroke="#31333A" stroke-width=".709"/><path d="m252.361 95.725-3.189-1.143c.404-1.093.823-1.956 1.256-2.587a6.125 6.125 0 0 1 1.638-1.6c.643-.427 1.458-.883 2.445-1.368.718-.349 1.378-.68 1.981-.993a7.018 7.018 0 0 0 1.633-1.156c.475-.461.852-1.08 1.131-1.858.283-.789.384-1.52.303-2.194a3.125 3.125 0 0 0-.762-1.763c-.426-.501-1.04-.895-1.84-1.182a5.296 5.296 0 0 0-2.015-.316 3.446 3.446 0 0 0-1.84.598c-.542.36-.962.939-1.26 1.735l-3.172-1.138c.486-1.283 1.203-2.277 2.152-2.982.961-.7 2.061-1.106 3.3-1.216 1.24-.11 2.517.07 3.831.541 1.452.52 2.592 1.226 3.421 2.117.84.894 1.353 1.93 1.538 3.105.188 1.164.043 2.415-.436 3.752-.369 1.03-.921 1.902-1.655 2.62a11.609 11.609 0 0 1-2.461 1.845 30.28 30.28 0 0 1-2.849 1.417c-.838.358-1.497.863-1.976 1.517a8.77 8.77 0 0 0-1.174 2.25Zm-5.275 4.243c.184-.514.5-.891.947-1.13.447-.24.974-.252 1.58-.034.617.22 1.022.566 1.215 1.035.193.469.197.961.013 1.475a1.942 1.942 0 0 1-.935 1.097c-.447.24-.979.249-1.597.028-.605-.218-1.005-.561-1.198-1.03a1.943 1.943 0 0 1-.025-1.44Z" fill="#fff"/><path fill-rule="evenodd" clip-rule="evenodd" d="M215.344 130.899c18.9 12.88 27.5 36.33 21.47 58.36-9.34 11.83-24.52 19.53-41.67 19.53a55.9 55.9 0 0 1-13.25-1.58c-.65-.16-1.28-.33-1.92-.5-.05-.01-.09-.03-.14-.04-11.61-3.44-21.55-10.67-28.43-20.23-.1-.13-.18-.26-.27-.39-4.73-7.15-7.45-15.54-7.45-24.5 0-3.1.33-6.13.95-9.07a68.267 68.267 0 0 0 19.38 2.71c14.19 0 27.1-4.13 36.66-10.88a42.45 42.45 0 0 0 12.2-12.87c.02-.04.03-.07.06-.1.54-.79 1.61-.99 2.41-.44Z" fill="#fff"/><path d="M236.814 189.259c6.03-22.03-2.57-45.48-21.47-58.36-.8-.55-1.87-.35-2.41.44-.03.03-.04.06-.06.1a42.45 42.45 0 0 1-12.2 12.87c-9.56 6.75-22.47 10.88-36.66 10.88-6.56.03-13.09-.88-19.38-2.71-.62 2.94-.95 5.97-.95 9.07 0 8.96 2.72 17.35 7.45 24.5.09.13.17.26.27.39 6.88 9.56 16.82 16.79 28.43 20.23.05.01.09.03.14.04.64.17 1.27.34 1.92.5a55.9 55.9 0 0 0 13.25 1.58c17.15 0 32.33-7.7 41.67-19.53Z" stroke="#31333A" stroke-width="2.126"/><path fill-rule="evenodd" clip-rule="evenodd" d="M164.011 156.133a72.92 72.92 0 0 1-7.95-.46 61.293 61.293 0 0 0-3.68 21.02c0 4.53.49 9.04 1.46 13.46a53.32 53.32 0 0 1-13.22-35.19c0-.95.04-1.9.09-2.84-1.27-.46-2.52-.95-3.73-1.48-1.47-.65-2.9-1.35-4.28-2.1a6.282 6.282 0 0 1-2.7-2.97c-1.39-3.19.06-6.9 3.25-8.29a63.26 63.26 0 0 1 13.23-4.2c12.47-25.79 42.82-37.46 69.35-26.67a53.709 53.709 0 0 1 33.57 49.72c.02 12.69-4.5 24.97-12.74 34.63 6.18-21.67-1.87-44.89-20.14-58.09-.05-.03-.1-.07-.15-.11-1.41-.9-3.29-.49-4.2.93a42.906 42.906 0 0 1-11.51 11.75c-9.56 6.75-22.46 10.89-36.65 10.89Z" fill="#31333A"/><path d="M156.061 155.673c2.64.3 5.3.45 7.95.46 14.19 0 27.09-4.14 36.65-10.89 4.56-3.14 8.47-7.13 11.51-11.75a3.044 3.044 0 0 1 4.2-.93c.05.04.1.08.15.11 18.27 13.2 26.32 36.42 20.14 58.09a53.234 53.234 0 0 0 12.74-34.63 53.709 53.709 0 0 0-33.57-49.72c-26.53-10.79-56.88.88-69.35 26.67a63.26 63.26 0 0 0-13.23 4.2 6.293 6.293 0 0 0-3.25 8.29c.55 1.26 1.5 2.3 2.7 2.97 1.38.75 2.81 1.45 4.28 2.1 1.21.53 2.46 1.02 3.73 1.48-.05.94-.09 1.89-.09 2.84a53.32 53.32 0 0 0 13.22 35.19c-.97-4.42-1.46-8.93-1.46-13.46a61.293 61.293 0 0 1 3.68-21.02Z" stroke="#31333A"/><path d="M193.147 196.296c0-1.41 1.39-2.55 3.1-2.55 1.71 0 3.1 1.14 3.1 2.55" stroke="#31333A" stroke-width="2.126"/><path d="M195.144 114.299c-28.42 0-51.46 21.15-51.46 47.25 0 26.09 23.04 47.24 51.46 47.24s51.45-21.15 51.45-47.24c0-26.1-23.03-47.25-51.45-47.25Z" stroke="#31333A" stroke-width="2.126"/><path d="M193.941 226.586a86.415 86.415 0 0 1-9.4 9.54c-.24.21-.56.43-.86.32-.16-.05-.27-.18-.38-.31-4.86-5.98-7.35-13.84-6.81-21.52M200.42 226.586a87.31 87.31 0 0 0 9.4 9.54c.25.21.56.43.86.32.16-.05.27-.18.38-.31 4.86-5.98 7.35-13.84 6.81-21.52" stroke="#31333A" stroke-width="2"/><path fill-rule="evenodd" clip-rule="evenodd" d="M85.535 94.853c-10.17-13.45-16.38-24.31-14.74-25.98.95-.974 4.442 1.346 8.192 3.838 2.721 1.808 5.578 3.707 7.698 4.502 13.55 5.09 23.41-5.96 23.41-5.96s-1.91 15.22 2.7 25.75 22.09 19.71 22.09 19.71-29.01 5.05-49.35-21.86Z" fill="#DCDDDD"/><path opacity=".51" fill-rule="evenodd" clip-rule="evenodd" d="M152.244 61.334s8.04-3.58 10.39-8.13c2.35-4.55 1.94-11.38 1.94-11.38s4.06 5.2 10.24 3.33c.961-.294 2.283-1.055 3.542-1.78 1.741-1.003 3.363-1.938 3.758-1.48.68.79-2.39 5.44-7.3 11.13-9.82 11.39-22.57 8.31-22.57 8.31Z" fill="#DCDDDD"/><path fill-rule="evenodd" clip-rule="evenodd" d="M214.962 176.246c1.19 0 2.34-.47 3.18-1.32.85-.84 1.32-1.99 1.32-3.18 0-1.19-.47-2.34-1.32-3.18a4.471 4.471 0 0 0-3.18-1.32c-1.19 0-2.34.47-3.18 1.32-.85.84-1.32 1.99-1.32 3.18 0 1.19.47 2.34 1.32 3.18.84.85 1.99 1.32 3.18 1.32Z" fill="#31333A"/><path d="M219.962 167.746h-9v8h9v-8Z" stroke="#31333A"/><path fill-rule="evenodd" clip-rule="evenodd" d="M175.962 176.246c1.19 0 2.34-.47 3.18-1.32.85-.84 1.32-1.99 1.32-3.18 0-1.19-.47-2.34-1.32-3.18a4.471 4.471 0 0 0-3.18-1.32c-1.19 0-2.34.47-3.18 1.32-.85.84-1.32 1.99-1.32 3.18 0 1.19.47 2.34 1.32 3.18.84.85 1.99 1.32 3.18 1.32Z" fill="#31333A"/><path d="M180.962 167.746h-9v8h9v-8Z" stroke="#31333A"/><path d="m195.68 174.088-1.82 3.17c-.52.91-1.07 1.9-.99 2.95.07 1.05 1.05 2.1 2.07 1.83" stroke="#31333A" stroke-width=".709"/><path fill-rule="evenodd" clip-rule="evenodd" d="M140.399 145.433a6.88 6.88 0 0 0-6.88 6.88c0 3.81 3.08 6.89 6.88 6.89 3.81 0 6.89-3.08 6.89-6.89 0-3.8-3.08-6.88-6.89-6.88Z" fill="#31333A"/></svg>